<svg width="512" height="512" viewBox="0 0 512 512" fill="none" xmlns="http://www.w3.org/2000/svg">
<rect width="512" height="512" rx="256" fill="#FF5757"/>
<path d="M81.25 298C82.0417 290 83 274.708 84.125 252.125H76.5C76.625 250.833 76.7917 248.083 77 243.875C77.25 239.667 77.3958 236.625 77.4375 234.75H86.3125C86.2708 233.083 86.25 231.646 86.25 230.438C86.25 226.604 86.4375 223.604 86.8125 221.438C87.2292 219.271 87.9583 217.438 89 215.938C90.0833 214.396 91.5833 213.042 93.5 211.875C95.4583 210.667 97.6458 209.854 100.062 209.438C102.521 209.021 105.062 208.812 107.688 208.812C110.104 208.812 112.708 208.979 115.5 209.312C118.333 209.604 121.708 210.271 125.625 211.312C125.75 217.938 126.021 223.438 126.438 227.812C122.312 226.312 118.604 225.562 115.312 225.562C113.062 225.562 111.292 226.083 110 227.125C108.75 228.167 108.125 230.083 108.125 232.875L108.188 234.75H122.562C122.229 239.542 121.896 245.333 121.562 252.125H108.562L106.5 298C101.542 297.917 97.2917 297.875 93.75 297.875C90.1667 297.875 86 297.917 81.25 298ZM132.812 226.25C133.062 221.292 133.188 217.375 133.188 214.5C133.188 213.667 133.167 212.542 133.125 211.125C138.167 211.208 142.396 211.25 145.812 211.25C150.521 211.25 154.646 211.208 158.188 211.125C158.062 212.417 157.979 213.5 157.938 214.375L157.562 222.125C157.479 223.292 157.438 224.667 157.438 226.25C153.312 226.167 149.354 226.125 145.562 226.125C141.646 226.125 137.396 226.167 132.812 226.25ZM128.875 298C129.458 292.917 129.896 288.729 130.188 285.438C130.479 282.146 130.75 277.938 131 272.812C131.292 267.688 131.542 262.021 131.75 255.812C131.958 249.604 132.125 242.396 132.25 234.188C137.667 234.271 142 234.312 145.25 234.312C148.208 234.312 152.458 234.271 158 234.188C157.292 242.062 156.771 248.979 156.438 254.938C156.146 260.896 155.958 267.208 155.875 273.875C155.708 285.708 155.625 293.75 155.625 298C150.667 297.917 146.396 297.875 142.812 297.875C139.271 297.875 134.625 297.917 128.875 298ZM169.125 297.938L170.25 284.5L172.688 237.812L173.375 212.688C179.167 212.771 183.521 212.812 186.438 212.812C190.229 212.812 194.417 212.771 199 212.688L197.562 231.875L195.25 279.125L194.75 298C190.292 297.917 186.271 297.875 182.688 297.875L169.125 297.938ZM209.062 298L210.812 267.875L211.812 244.312L211.938 234.188C216.521 234.271 220.562 234.312 224.062 234.312C228.021 234.312 231.875 234.271 235.625 234.188L235.188 242.5C236.479 240.833 237.562 239.562 238.438 238.688C239.354 237.771 240.458 236.917 241.75 236.125C243.042 235.292 244.375 234.646 245.75 234.188C247.125 233.688 248.667 233.292 250.375 233C252.083 232.708 253.875 232.562 255.75 232.562C257.875 232.562 259.833 232.75 261.625 233.125C263.417 233.458 264.958 233.896 266.25 234.438C267.542 234.979 268.667 235.604 269.625 236.312C270.583 237.021 271.417 237.833 272.125 238.75C272.875 239.625 273.729 240.917 274.688 242.625C276.521 239.958 278.458 237.938 280.5 236.562C282.542 235.188 284.854 234.188 287.438 233.562C290.062 232.896 292.75 232.562 295.5 232.562C299.125 232.562 302.542 233.083 305.75 234.125C308.958 235.167 311.583 236.979 313.625 239.562C315.708 242.104 316.75 245.417 316.75 249.5C316.75 251.417 316.604 254.312 316.312 258.188C316.062 262.062 315.688 268.729 315.188 278.188C314.729 287.604 314.479 294.208 314.438 298C310.604 297.917 306.896 297.875 303.312 297.875C298.938 297.875 294.354 297.917 289.562 298C289.979 292.708 290.396 286.083 290.812 278.125C291.271 270.125 291.5 264.583 291.5 261.5C291.5 258.833 291.188 256.854 290.562 255.562C289.938 254.229 289.125 253.333 288.125 252.875C287.167 252.375 286.104 252.125 284.938 252.125C283.688 252.125 282.604 252.354 281.688 252.812C280.688 253.312 279.812 254.083 279.062 255.125C278.062 256.5 277.25 258.229 276.625 260.312C276.125 261.938 275.729 264.417 275.438 267.75C275.146 271.167 274.917 275.667 274.75 281.25L274.25 298C269.792 297.917 265.771 297.875 262.188 297.875C258.521 297.875 254.208 297.917 249.25 298C249.625 294.292 250.062 288.062 250.562 279.312C251.062 270.562 251.312 264.708 251.312 261.75C251.312 259.25 251.062 257.375 250.562 256.125C250.062 254.875 249.354 253.875 248.438 253.125C247.562 252.375 246.375 252 244.875 252C243.25 252 241.833 252.479 240.625 253.438C239.417 254.396 238.375 255.771 237.5 257.562C236.667 259.354 236.062 261.833 235.688 265C235.354 268.125 235.042 272.917 234.75 279.375C234.458 285.833 234.271 292.042 234.188 298C229.146 297.917 225.062 297.875 221.938 297.875C218.479 297.875 214.188 297.917 209.062 298ZM328.125 297.938L329.25 284.5L331.688 237.812L332.375 212.688C338.167 212.771 342.521 212.812 345.438 212.812C349.229 212.812 353.417 212.771 358 212.688L356.562 231.875L354.25 279.125L353.75 298C349.292 297.917 345.271 297.875 341.688 297.875L328.125 297.938ZM362.688 326.562C361.396 316.604 360.521 310.417 360.062 308C362.688 309.25 365 310.104 367 310.562C369.042 311.021 370.792 311.25 372.25 311.25C373.792 311.25 375.229 311.042 376.562 310.625C377.938 310.208 379.021 309.688 379.812 309.062C380.604 308.479 381.458 307.562 382.375 306.312C383.333 305.062 384.042 303.979 384.5 303.062C384.958 302.188 385.417 300.917 385.875 299.25L374.125 263.688L364.062 234.188C370.271 234.271 374.625 234.312 377.125 234.312C380.042 234.312 384.021 234.271 389.062 234.188C389.854 237.396 391.312 242.938 393.438 250.812C395.604 258.688 397.167 264.854 398.125 269.312C398.667 271.771 399.188 274.896 399.688 278.688L401 273.688C401.417 272.354 401.896 270.833 402.438 269.125C402.979 267.417 403.667 265.375 404.5 263L408.562 251.625L415.312 234.188C420.521 234.271 424.458 234.312 427.125 234.312C429.458 234.312 433.625 234.271 439.625 234.188L427.562 261.438L405.75 312C404.333 314.833 402.979 317.083 401.688 318.75C400.479 320.25 399.167 321.562 397.75 322.688C396.417 323.729 394.979 324.604 393.438 325.312C391.354 326.271 389.062 327.021 386.562 327.562C383.812 328.146 381.021 328.438 378.188 328.438C376.896 328.438 375.188 328.333 373.062 328.125C370.938 327.958 369.208 327.771 367.875 327.562C366.583 327.396 364.854 327.062 362.688 326.562Z" fill="#1E191A"/>
</svg>
